<svg width="24" height="24" viewBox="0 0 24 24" xmlns="http://www.w3.org/2000/svg"><title>close</title><desc>Created with Sketch.</desc><g fill="none"><path d="M0 0h24v24h-24z"/><path d="M12.123 13.061c-3.887 0-7.511-2.026-9.514-5.295-.155-.333-.115-.564.12-.694.235-.129.473-.052.714.233 1.788 2.993 5.103 4.834 8.656 4.834 3.553 0 6.867-1.842 8.656-4.834.228-.303.465-.381.71-.233.245.148.287.379.125.694-1.955 3.269-5.58 5.295-9.466 5.295zm-.532 2.936c0-.276.232-.5.517-.5.286 0 .518.224.518.5l.001 1.504c0 .276-.232.5-.517.5-.286 0-.518-.224-.518-.5l-.001-1.504zm-4.619-1.091c.094-.259.389-.39.657-.293.269.098.41.387.316.647l-.514 1.414c-.094.259-.389.39-.657.293-.269-.098-.41-.387-.316-.647l.514-1.414zm-3.851-2.64c.184-.211.51-.239.729-.062.219.177.248.493.064.704l-1.001 1.153c-.184.211-.51.239-.729.062-.219-.177-.248-.493-.064-.704l1.001-1.153zm17.756-.002l1.001 1.153c.184.212.155.527-.064.704-.219.177-.546.15-.729-.062l-1.001-1.153c-.184-.212-.155-.527.064-.704.219-.177.546-.15.729.062zm-3.393 2.643l.514 1.413c.094.259-.047.549-.316.647-.269.098-.563-.033-.657-.293l-.514-1.413c-.094-.259.047-.549.316-.647.269-.098.563.033.657.293z" fill="#595959" fill-rule="nonzero"/></g></svg>