<svg width="24" height="24" viewBox="0 0 24 24" xmlns="http://www.w3.org/2000/svg"><title>open</title><desc>Created with Sketch.</desc><g fill="#595959"><path d="M11.267 3.99l.001 1.654c0 .304.255.55.568.55.314 0 .568-.246.568-.55l-.001-1.654c0-.304-.255-.55-.568-.55-.314 0-.568.246-.568.55zM5.884 5.262l.566 1.555c.104.285.427.43.722.322.295-.107.45-.426.346-.711l-.566-1.555c-.104-.285-.427-.43-.722-.322-.295.107-.45.426-.346.711zM18.222 5.262l-.566 1.555c-.104.285-.427.43-.722.322-.295-.107-.45-.426-.346-.711l.566-1.555c.104-.285.427-.43.722-.322.295.107.45.426.346.711zM1.446 8.449l1.064 1.267c.195.232.548.257.789.056.24-.202.277-.554.081-.786l-1.064-1.267c-.195-.232-.548-.257-.789-.056-.24.202-.277.554-.081.786zM22.354 8.449l-1.064 1.267c-.195.232-.548.257-.789.056-.24-.202-.277-.554-.081-.786l1.064-1.267c.195-.232.548-.257.789-.056.24.202.277.554.081.786z"/><path d="M12.05 17.15c1.65 0 3-1.35 3-3s-1.35-3-3-3-3 1.35-3 3 1.325 3 3 3zM1.975 14.15l.15.25c2.05 3.55 5.85 5.75 9.925 5.75 4.075 0 7.875-2.2 9.925-5.75l.15-.25-.15-.25c-2.05-3.55-5.85-5.75-9.925-5.75-4.075 0-7.875 2.2-9.925 5.75l-.15.25zm18.975 0c-1.325 2.175-3.4 3.75-5.775 4.5 1.425-1 2.35-2.65 2.35-4.5 0-1.875-.925-3.5-2.35-4.5 2.375.75 4.45 2.325 5.775 4.5zm-4.4 0c0 2.475-2.025 4.5-4.5 4.5s-4.5-2.025-4.5-4.5 2.025-4.5 4.5-4.5 4.5 2.025 4.5 4.5zm-7.65-4.5c-1.425 1-2.35 2.65-2.35 4.5 0 1.875.925 3.5 2.35 4.5-2.375-.75-4.425-2.325-5.775-4.5 1.325-2.175 3.4-3.75 5.775-4.5z" fill-rule="nonzero"/></g></svg>